<svg width="64" height="64" viewBox="0 0 64 64" fill="none" xmlns="http://www.w3.org/2000/svg">
<circle cx="31.9989" cy="31.9989" r="31.7856" stroke="#333333" stroke-width="0.426667"/>
<path fillRule="evenodd" clipRule="evenodd" d="M31.7953 2.3031C31.9417 2.6452 32.4252 2.64916 32.5771 2.30951L33.4114 0.444254C32.7192 -0.137047 31.691 -0.147879 30.9863 0.411758L31.7953 2.3031Z" fill="black"/>
<path fillRule="evenodd" clipRule="evenodd" d="M32.335 61.6969C32.1887 61.3548 31.7052 61.3508 31.5533 61.6905L30.719 63.5557C31.4112 64.137 32.4394 64.1479 33.144 63.5882L32.335 61.6969Z" fill="black"/>
<path fillRule="evenodd" clipRule="evenodd" d="M61.6969 31.528C61.3548 31.6743 61.3508 32.1578 61.6905 32.3097L63.5557 33.144C64.137 32.4519 64.1479 31.4236 63.5882 30.719L61.6969 31.528Z" fill="black"/>
<path fillRule="evenodd" clipRule="evenodd" d="M2.3031 32.335C2.6452 32.1887 2.64916 31.7051 2.30951 31.5532L0.444258 30.719C-0.137045 31.4111 -0.147881 32.4393 0.411754 33.144L2.3031 32.335Z" fill="black"/>
<path d="M19.0347 8.453C19.0153 7.73736 19.8326 7.31731 20.4031 7.74971L43.0836 24.938C43.5844 25.3175 43.5171 26.0898 42.9583 26.3771L21.0512 37.636C20.4924 37.9232 19.8252 37.5283 19.8081 36.9002L19.0347 8.453Z" fill="#2D9CDB"/>
<path d="M45.1781 55.767C45.1995 56.4826 44.3833 56.9048 43.8116 56.4739L21.0856 39.3458C20.5838 38.9676 20.649 38.1952 21.2071 37.9065L43.0842 26.5895C43.6423 26.3008 44.3105 26.6939 44.3292 27.322L45.1781 55.767Z" fill="#27AE60"/>
<path fillRule="evenodd" clipRule="evenodd" d="M30.9037 26.6563C30.8441 26.162 30.3728 25.8187 29.9039 25.9861C29.3104 26.198 28.762 26.4931 28.2701 26.8555C27.8775 27.1448 27.8879 27.7133 28.2458 28.0446L29.7206 29.4096C30.3034 29.949 31.2424 29.4698 31.1474 28.6813L30.9037 26.6563ZM27.987 28.3481C27.6485 27.9834 27.0661 27.9825 26.7847 28.3928C26.4441 28.8893 26.1729 29.4339 25.9825 30.0111C25.8287 30.4772 26.1716 30.9361 26.659 30.9941L28.6064 31.2259C29.3949 31.3197 29.8729 30.3801 29.3327 29.798L27.987 28.3481ZM26.6092 31.3918C26.1237 31.2963 25.6537 31.6336 25.6633 32.1283C25.669 32.4221 25.695 32.7191 25.7425 33.0176C25.7904 33.3187 25.8585 33.6115 25.9453 33.8948C26.0902 34.3676 26.6413 34.5419 27.0729 34.3006L28.7725 33.3502C29.4656 32.9626 29.3 31.9215 28.5209 31.7681L26.6092 31.3918ZM27.2457 34.6624C26.8001 34.8689 26.6166 35.4122 26.9081 35.8074C27.2682 36.2957 27.6947 36.7281 28.1719 37.0934C28.5668 37.3957 29.1199 37.214 29.3284 36.7625L30.1556 34.9711C30.4885 34.2502 29.7426 33.5052 29.0221 33.8391L27.2457 34.6624ZM29.6696 36.9697C29.4321 37.3959 29.5988 37.9398 30.0622 38.0927C30.6407 38.2836 31.2519 38.3934 31.8801 38.4107C32.3778 38.4243 32.7194 37.9517 32.6225 37.4633L32.2273 35.4695C32.0729 34.6906 31.0315 34.5264 30.6449 35.22L29.6696 36.9697ZM33.0166 37.4361C33.0748 37.9195 33.5277 38.2615 33.9921 38.1154C34.6096 37.921 35.1816 37.6379 35.696 37.2828C36.1048 37.0006 36.1023 36.4192 35.7377 36.0818L34.1963 34.655C33.6135 34.1156 32.6745 34.5949 32.7694 35.3833L33.0166 37.4361ZM36.0319 35.8264C36.3639 36.1841 36.9328 36.1935 37.2216 35.8001C37.6042 35.279 37.9083 34.7004 38.1199 34.0835C38.2802 33.616 37.9368 33.1513 37.446 33.0929L35.3105 32.8388C34.522 32.7449 34.044 33.6846 34.5842 34.2666L36.0319 35.8264ZM37.5177 32.7141C37.999 32.8089 38.4663 32.4782 38.4639 31.9877C38.4622 31.664 38.436 31.3362 38.3835 31.0067C38.3315 30.6796 38.2556 30.3624 38.1578 30.0563C38.0084 29.5888 37.4611 29.419 37.0326 29.6586L35.1443 30.7145C34.4512 31.102 34.6169 32.1432 35.396 32.2965L37.5177 32.7141ZM36.8491 29.3198C37.2972 29.1122 37.4796 28.5644 37.1828 28.1697C36.7902 27.6475 36.3212 27.1906 35.7951 26.813C35.3985 26.5283 34.8603 26.7136 34.6556 27.1568L33.7613 29.0935C33.4283 29.8145 34.1743 30.5594 34.8948 30.2255L36.8491 29.3198ZM34.2978 27.0043C34.5395 26.5706 34.3618 26.0174 33.8859 25.8757C33.2852 25.6968 32.6518 25.6046 32.0027 25.6115C31.5159 25.6167 31.1915 26.0824 31.2861 26.56L31.6896 28.5951C31.844 29.3741 32.8854 29.5383 33.272 28.8446L34.2978 27.0043Z" fill="white"/>
</svg>
